<mxfile host="app.diagrams.net" modified="2023-11-27T21:40:33.863Z" agent="Mozilla/5.0 (Windows NT 10.0; Win64; x64; rv:121.0) Gecko/20100101 Firefox/121.0" etag="bxAI4PBHgAqZ0aN_rx65" version="22.1.4" type="device">
  <diagram name="Page-1" id="K4SMXU_MNX4Jthn5KgSA">
    <mxGraphModel dx="2100" dy="1116" grid="1" gridSize="10" guides="1" tooltips="1" connect="1" arrows="1" fold="1" page="1" pageScale="1" pageWidth="850" pageHeight="1100" math="0" shadow="0">
      <root>
        <mxCell id="0" />
        <mxCell id="1" parent="0" />
        <mxCell id="XualJJ2A45THliXMUd8w-12" style="edgeStyle=orthogonalEdgeStyle;rounded=0;orthogonalLoop=1;jettySize=auto;html=1;exitX=0.5;exitY=1;exitDx=0;exitDy=0;entryX=0.5;entryY=0;entryDx=0;entryDy=0;" edge="1" parent="1" source="XualJJ2A45THliXMUd8w-1" target="XualJJ2A45THliXMUd8w-2">
          <mxGeometry relative="1" as="geometry" />
        </mxCell>
        <mxCell id="XualJJ2A45THliXMUd8w-13" style="edgeStyle=orthogonalEdgeStyle;rounded=0;orthogonalLoop=1;jettySize=auto;html=1;exitX=0.5;exitY=1;exitDx=0;exitDy=0;entryX=0.5;entryY=0;entryDx=0;entryDy=0;" edge="1" parent="1" source="XualJJ2A45THliXMUd8w-1" target="XualJJ2A45THliXMUd8w-3">
          <mxGeometry relative="1" as="geometry" />
        </mxCell>
        <mxCell id="XualJJ2A45THliXMUd8w-14" style="edgeStyle=orthogonalEdgeStyle;rounded=0;orthogonalLoop=1;jettySize=auto;html=1;exitX=0.5;exitY=1;exitDx=0;exitDy=0;" edge="1" parent="1" source="XualJJ2A45THliXMUd8w-1" target="XualJJ2A45THliXMUd8w-11">
          <mxGeometry relative="1" as="geometry" />
        </mxCell>
        <mxCell id="XualJJ2A45THliXMUd8w-15" style="edgeStyle=orthogonalEdgeStyle;rounded=0;orthogonalLoop=1;jettySize=auto;html=1;exitX=0.5;exitY=1;exitDx=0;exitDy=0;entryX=0.5;entryY=0;entryDx=0;entryDy=0;" edge="1" parent="1" source="XualJJ2A45THliXMUd8w-1" target="XualJJ2A45THliXMUd8w-4">
          <mxGeometry relative="1" as="geometry" />
        </mxCell>
        <mxCell id="XualJJ2A45THliXMUd8w-16" style="edgeStyle=orthogonalEdgeStyle;rounded=0;orthogonalLoop=1;jettySize=auto;html=1;exitX=0.5;exitY=1;exitDx=0;exitDy=0;entryX=0.5;entryY=0;entryDx=0;entryDy=0;" edge="1" parent="1" source="XualJJ2A45THliXMUd8w-1" target="XualJJ2A45THliXMUd8w-5">
          <mxGeometry relative="1" as="geometry" />
        </mxCell>
        <mxCell id="XualJJ2A45THliXMUd8w-17" style="edgeStyle=orthogonalEdgeStyle;rounded=0;orthogonalLoop=1;jettySize=auto;html=1;exitX=0.5;exitY=1;exitDx=0;exitDy=0;entryX=0.5;entryY=0;entryDx=0;entryDy=0;" edge="1" parent="1" source="XualJJ2A45THliXMUd8w-1" target="XualJJ2A45THliXMUd8w-6">
          <mxGeometry relative="1" as="geometry" />
        </mxCell>
        <mxCell id="XualJJ2A45THliXMUd8w-18" style="edgeStyle=orthogonalEdgeStyle;rounded=0;orthogonalLoop=1;jettySize=auto;html=1;exitX=0.5;exitY=1;exitDx=0;exitDy=0;entryX=0.5;entryY=0;entryDx=0;entryDy=0;" edge="1" parent="1" source="XualJJ2A45THliXMUd8w-1" target="XualJJ2A45THliXMUd8w-8">
          <mxGeometry relative="1" as="geometry" />
        </mxCell>
        <mxCell id="XualJJ2A45THliXMUd8w-19" style="edgeStyle=orthogonalEdgeStyle;rounded=0;orthogonalLoop=1;jettySize=auto;html=1;exitX=0.5;exitY=1;exitDx=0;exitDy=0;entryX=0.5;entryY=0;entryDx=0;entryDy=0;" edge="1" parent="1" source="XualJJ2A45THliXMUd8w-1" target="XualJJ2A45THliXMUd8w-9">
          <mxGeometry relative="1" as="geometry" />
        </mxCell>
        <mxCell id="XualJJ2A45THliXMUd8w-1" value="AppComponent" style="rounded=0;whiteSpace=wrap;html=1;" vertex="1" parent="1">
          <mxGeometry x="720" y="80" width="120" height="60" as="geometry" />
        </mxCell>
        <mxCell id="XualJJ2A45THliXMUd8w-2" value="WelcomePage&lt;br&gt;Component" style="rounded=0;whiteSpace=wrap;html=1;" vertex="1" parent="1">
          <mxGeometry x="40" y="200" width="120" height="60" as="geometry" />
        </mxCell>
        <mxCell id="XualJJ2A45THliXMUd8w-23" style="edgeStyle=orthogonalEdgeStyle;rounded=0;orthogonalLoop=1;jettySize=auto;html=1;exitX=0.5;exitY=1;exitDx=0;exitDy=0;" edge="1" parent="1" source="XualJJ2A45THliXMUd8w-3" target="XualJJ2A45THliXMUd8w-20">
          <mxGeometry relative="1" as="geometry" />
        </mxCell>
        <mxCell id="XualJJ2A45THliXMUd8w-31" style="edgeStyle=orthogonalEdgeStyle;rounded=0;orthogonalLoop=1;jettySize=auto;html=1;exitX=0.25;exitY=1;exitDx=0;exitDy=0;entryX=0.5;entryY=0;entryDx=0;entryDy=0;" edge="1" parent="1" source="XualJJ2A45THliXMUd8w-3" target="XualJJ2A45THliXMUd8w-26">
          <mxGeometry relative="1" as="geometry" />
        </mxCell>
        <mxCell id="XualJJ2A45THliXMUd8w-3" value="FleetManagementPage&lt;br&gt;Component" style="rounded=0;whiteSpace=wrap;html=1;" vertex="1" parent="1">
          <mxGeometry x="170" y="200" width="160" height="60" as="geometry" />
        </mxCell>
        <mxCell id="XualJJ2A45THliXMUd8w-33" style="edgeStyle=orthogonalEdgeStyle;rounded=0;orthogonalLoop=1;jettySize=auto;html=1;exitX=0.096;exitY=0.993;exitDx=0;exitDy=0;entryX=0.565;entryY=-0.01;entryDx=0;entryDy=0;exitPerimeter=0;entryPerimeter=0;" edge="1" parent="1" source="XualJJ2A45THliXMUd8w-4" target="XualJJ2A45THliXMUd8w-22">
          <mxGeometry relative="1" as="geometry" />
        </mxCell>
        <mxCell id="XualJJ2A45THliXMUd8w-35" style="edgeStyle=orthogonalEdgeStyle;rounded=0;orthogonalLoop=1;jettySize=auto;html=1;exitX=0.5;exitY=1;exitDx=0;exitDy=0;entryX=0.5;entryY=0;entryDx=0;entryDy=0;" edge="1" parent="1" source="XualJJ2A45THliXMUd8w-4" target="XualJJ2A45THliXMUd8w-34">
          <mxGeometry relative="1" as="geometry" />
        </mxCell>
        <mxCell id="XualJJ2A45THliXMUd8w-4" value="CarAssigmentPage&lt;br&gt;Component" style="rounded=0;whiteSpace=wrap;html=1;" vertex="1" parent="1">
          <mxGeometry x="490" y="200" width="160" height="60" as="geometry" />
        </mxCell>
        <mxCell id="XualJJ2A45THliXMUd8w-37" style="edgeStyle=orthogonalEdgeStyle;rounded=0;orthogonalLoop=1;jettySize=auto;html=1;exitX=0.25;exitY=1;exitDx=0;exitDy=0;entryX=0.5;entryY=0;entryDx=0;entryDy=0;" edge="1" parent="1" source="XualJJ2A45THliXMUd8w-5" target="XualJJ2A45THliXMUd8w-36">
          <mxGeometry relative="1" as="geometry" />
        </mxCell>
        <mxCell id="XualJJ2A45THliXMUd8w-39" style="edgeStyle=orthogonalEdgeStyle;rounded=0;orthogonalLoop=1;jettySize=auto;html=1;exitX=0.5;exitY=1;exitDx=0;exitDy=0;entryX=0.25;entryY=0;entryDx=0;entryDy=0;" edge="1" parent="1" source="XualJJ2A45THliXMUd8w-5" target="XualJJ2A45THliXMUd8w-38">
          <mxGeometry relative="1" as="geometry" />
        </mxCell>
        <mxCell id="XualJJ2A45THliXMUd8w-42" style="edgeStyle=orthogonalEdgeStyle;rounded=0;orthogonalLoop=1;jettySize=auto;html=1;exitX=0.75;exitY=1;exitDx=0;exitDy=0;entryX=0.5;entryY=0;entryDx=0;entryDy=0;" edge="1" parent="1" source="XualJJ2A45THliXMUd8w-5" target="XualJJ2A45THliXMUd8w-40">
          <mxGeometry relative="1" as="geometry" />
        </mxCell>
        <mxCell id="XualJJ2A45THliXMUd8w-5" value="SchemaManagement&lt;br&gt;PageComponent" style="rounded=0;whiteSpace=wrap;html=1;" vertex="1" parent="1">
          <mxGeometry x="750" y="200" width="160" height="60" as="geometry" />
        </mxCell>
        <mxCell id="XualJJ2A45THliXMUd8w-51" style="edgeStyle=orthogonalEdgeStyle;rounded=0;orthogonalLoop=1;jettySize=auto;html=1;exitX=0.25;exitY=1;exitDx=0;exitDy=0;" edge="1" parent="1" source="XualJJ2A45THliXMUd8w-6" target="XualJJ2A45THliXMUd8w-49">
          <mxGeometry relative="1" as="geometry" />
        </mxCell>
        <mxCell id="XualJJ2A45THliXMUd8w-52" style="edgeStyle=orthogonalEdgeStyle;rounded=0;orthogonalLoop=1;jettySize=auto;html=1;exitX=0.75;exitY=1;exitDx=0;exitDy=0;entryX=0.5;entryY=0;entryDx=0;entryDy=0;" edge="1" parent="1" source="XualJJ2A45THliXMUd8w-6" target="XualJJ2A45THliXMUd8w-50">
          <mxGeometry relative="1" as="geometry" />
        </mxCell>
        <mxCell id="XualJJ2A45THliXMUd8w-6" value="CarReportingPage&lt;br&gt;Component" style="rounded=0;whiteSpace=wrap;html=1;" vertex="1" parent="1">
          <mxGeometry x="1100" y="200" width="160" height="60" as="geometry" />
        </mxCell>
        <mxCell id="XualJJ2A45THliXMUd8w-59" style="edgeStyle=orthogonalEdgeStyle;rounded=0;orthogonalLoop=1;jettySize=auto;html=1;exitX=0.25;exitY=1;exitDx=0;exitDy=0;" edge="1" parent="1" source="XualJJ2A45THliXMUd8w-8" target="XualJJ2A45THliXMUd8w-57">
          <mxGeometry relative="1" as="geometry" />
        </mxCell>
        <mxCell id="XualJJ2A45THliXMUd8w-60" style="edgeStyle=orthogonalEdgeStyle;rounded=0;orthogonalLoop=1;jettySize=auto;html=1;exitX=0.75;exitY=1;exitDx=0;exitDy=0;entryX=0.5;entryY=0;entryDx=0;entryDy=0;" edge="1" parent="1" source="XualJJ2A45THliXMUd8w-8" target="XualJJ2A45THliXMUd8w-58">
          <mxGeometry relative="1" as="geometry" />
        </mxCell>
        <mxCell id="XualJJ2A45THliXMUd8w-8" value="UserCreationPage&lt;br&gt;Component" style="rounded=0;whiteSpace=wrap;html=1;" vertex="1" parent="1">
          <mxGeometry x="1360" y="200" width="160" height="60" as="geometry" />
        </mxCell>
        <mxCell id="XualJJ2A45THliXMUd8w-9" value="LoginPageComponent" style="rounded=0;whiteSpace=wrap;html=1;" vertex="1" parent="1">
          <mxGeometry x="1540" y="200" width="160" height="60" as="geometry" />
        </mxCell>
        <mxCell id="XualJJ2A45THliXMUd8w-24" style="edgeStyle=orthogonalEdgeStyle;rounded=0;orthogonalLoop=1;jettySize=auto;html=1;exitX=0.118;exitY=0.977;exitDx=0;exitDy=0;entryX=0.702;entryY=-0.01;entryDx=0;entryDy=0;exitPerimeter=0;entryPerimeter=0;" edge="1" parent="1" source="XualJJ2A45THliXMUd8w-11" target="XualJJ2A45THliXMUd8w-20">
          <mxGeometry relative="1" as="geometry" />
        </mxCell>
        <mxCell id="XualJJ2A45THliXMUd8w-30" style="edgeStyle=orthogonalEdgeStyle;rounded=0;orthogonalLoop=1;jettySize=auto;html=1;exitX=0.75;exitY=1;exitDx=0;exitDy=0;entryX=0.25;entryY=0;entryDx=0;entryDy=0;" edge="1" parent="1" source="XualJJ2A45THliXMUd8w-11" target="XualJJ2A45THliXMUd8w-22">
          <mxGeometry relative="1" as="geometry" />
        </mxCell>
        <mxCell id="XualJJ2A45THliXMUd8w-11" value="FleetViewPage&lt;br&gt;Component" style="rounded=0;whiteSpace=wrap;html=1;" vertex="1" parent="1">
          <mxGeometry x="350" y="200" width="120" height="60" as="geometry" />
        </mxCell>
        <mxCell id="XualJJ2A45THliXMUd8w-20" value="FleetOverview&lt;br&gt;Component" style="rounded=0;whiteSpace=wrap;html=1;" vertex="1" parent="1">
          <mxGeometry x="280" y="320" width="120" height="60" as="geometry" />
        </mxCell>
        <mxCell id="XualJJ2A45THliXMUd8w-22" value="CarOverview&lt;br&gt;Component" style="rounded=0;whiteSpace=wrap;html=1;" vertex="1" parent="1">
          <mxGeometry x="410" y="320" width="120" height="60" as="geometry" />
        </mxCell>
        <mxCell id="XualJJ2A45THliXMUd8w-26" value="FleetManagement&lt;br&gt;CreateComponent" style="rounded=0;whiteSpace=wrap;html=1;" vertex="1" parent="1">
          <mxGeometry x="150" y="320" width="120" height="60" as="geometry" />
        </mxCell>
        <mxCell id="XualJJ2A45THliXMUd8w-34" value="CarFleetAssigment&lt;br&gt;Component" style="rounded=0;whiteSpace=wrap;html=1;" vertex="1" parent="1">
          <mxGeometry x="540" y="320" width="120" height="60" as="geometry" />
        </mxCell>
        <mxCell id="XualJJ2A45THliXMUd8w-47" style="edgeStyle=orthogonalEdgeStyle;rounded=0;orthogonalLoop=1;jettySize=auto;html=1;exitX=0.25;exitY=1;exitDx=0;exitDy=0;" edge="1" parent="1" source="XualJJ2A45THliXMUd8w-36" target="XualJJ2A45THliXMUd8w-44">
          <mxGeometry relative="1" as="geometry" />
        </mxCell>
        <mxCell id="XualJJ2A45THliXMUd8w-48" style="edgeStyle=orthogonalEdgeStyle;rounded=0;orthogonalLoop=1;jettySize=auto;html=1;exitX=0.75;exitY=1;exitDx=0;exitDy=0;" edge="1" parent="1" source="XualJJ2A45THliXMUd8w-36" target="XualJJ2A45THliXMUd8w-46">
          <mxGeometry relative="1" as="geometry" />
        </mxCell>
        <mxCell id="XualJJ2A45THliXMUd8w-36" value="SchemaOverview&lt;br&gt;Component" style="rounded=0;whiteSpace=wrap;html=1;" vertex="1" parent="1">
          <mxGeometry x="670" y="320" width="120" height="60" as="geometry" />
        </mxCell>
        <mxCell id="XualJJ2A45THliXMUd8w-38" value="SchemaCreate&lt;br&gt;Component" style="rounded=0;whiteSpace=wrap;html=1;" vertex="1" parent="1">
          <mxGeometry x="800" y="320" width="120" height="60" as="geometry" />
        </mxCell>
        <mxCell id="XualJJ2A45THliXMUd8w-40" value="SchemaCar&lt;br&gt;AssigmentOutput" style="rounded=0;whiteSpace=wrap;html=1;" vertex="1" parent="1">
          <mxGeometry x="930" y="320" width="120" height="60" as="geometry" />
        </mxCell>
        <mxCell id="XualJJ2A45THliXMUd8w-44" value="FieldCreation&lt;br&gt;Component" style="rounded=0;whiteSpace=wrap;html=1;" vertex="1" parent="1">
          <mxGeometry x="610" y="430" width="120" height="60" as="geometry" />
        </mxCell>
        <mxCell id="XualJJ2A45THliXMUd8w-46" value="FieldOverview&lt;br&gt;Component" style="rounded=0;whiteSpace=wrap;html=1;" vertex="1" parent="1">
          <mxGeometry x="740" y="430" width="120" height="60" as="geometry" />
        </mxCell>
        <mxCell id="XualJJ2A45THliXMUd8w-49" value="ReportComponent" style="rounded=0;whiteSpace=wrap;html=1;" vertex="1" parent="1">
          <mxGeometry x="1060" y="320" width="120" height="60" as="geometry" />
        </mxCell>
        <mxCell id="XualJJ2A45THliXMUd8w-55" style="edgeStyle=orthogonalEdgeStyle;rounded=0;orthogonalLoop=1;jettySize=auto;html=1;exitX=0.25;exitY=1;exitDx=0;exitDy=0;entryX=0.5;entryY=0;entryDx=0;entryDy=0;" edge="1" parent="1" source="XualJJ2A45THliXMUd8w-50" target="XualJJ2A45THliXMUd8w-53">
          <mxGeometry relative="1" as="geometry" />
        </mxCell>
        <mxCell id="XualJJ2A45THliXMUd8w-56" style="edgeStyle=orthogonalEdgeStyle;rounded=0;orthogonalLoop=1;jettySize=auto;html=1;exitX=0.75;exitY=1;exitDx=0;exitDy=0;entryX=0.5;entryY=0;entryDx=0;entryDy=0;" edge="1" parent="1" source="XualJJ2A45THliXMUd8w-50" target="XualJJ2A45THliXMUd8w-54">
          <mxGeometry relative="1" as="geometry" />
        </mxCell>
        <mxCell id="XualJJ2A45THliXMUd8w-50" value="AlertsManager&lt;br&gt;Component" style="rounded=0;whiteSpace=wrap;html=1;" vertex="1" parent="1">
          <mxGeometry x="1190" y="320" width="120" height="60" as="geometry" />
        </mxCell>
        <mxCell id="XualJJ2A45THliXMUd8w-53" value="AlertOverview&lt;br&gt;Component" style="rounded=0;whiteSpace=wrap;html=1;" vertex="1" parent="1">
          <mxGeometry x="1140" y="430" width="120" height="60" as="geometry" />
        </mxCell>
        <mxCell id="XualJJ2A45THliXMUd8w-54" value="AlertCreation&lt;br&gt;Component" style="rounded=0;whiteSpace=wrap;html=1;" vertex="1" parent="1">
          <mxGeometry x="1270" y="430" width="120" height="60" as="geometry" />
        </mxCell>
        <mxCell id="XualJJ2A45THliXMUd8w-57" value="UserOverview&lt;br&gt;Component" style="rounded=0;whiteSpace=wrap;html=1;" vertex="1" parent="1">
          <mxGeometry x="1320" y="320" width="120" height="60" as="geometry" />
        </mxCell>
        <mxCell id="XualJJ2A45THliXMUd8w-58" value="UserCreate&lt;br&gt;Component" style="rounded=0;whiteSpace=wrap;html=1;" vertex="1" parent="1">
          <mxGeometry x="1450" y="320" width="120" height="60" as="geometry" />
        </mxCell>
      </root>
    </mxGraphModel>
  </diagram>
</mxfile>
